<svg id="Layer_1" data-name="Layer 1" xmlns="http://www.w3.org/2000/svg" xmlns:xlink="http://www.w3.org/1999/xlink" viewBox="0 0 18 15"><defs><style>.cls-1{fill:none;}.cls-2{clip-path:url(#clip-path);}.cls-3{clip-path:url(#clip-path-2);}.cls-4{clip-path:url(#clip-path-3);}.cls-5{clip-path:url(#clip-path-4);}.cls-6{clip-path:url(#clip-path-5);}.cls-7{fill:#010101;}.cls-8{clip-path:url(#clip-path-6);}.cls-9{clip-path:url(#clip-path-8);}.cls-10{clip-path:url(#clip-path-9);}.cls-11{clip-path:url(#clip-path-10);}.cls-12{clip-path:url(#clip-path-11);}.cls-13{clip-path:url(#clip-path-13);}.cls-14{clip-path:url(#clip-path-14);}.cls-15{clip-path:url(#clip-path-15);}.cls-16{clip-path:url(#clip-path-16);}.cls-17{clip-path:url(#clip-path-18);}.cls-18{clip-path:url(#clip-path-19);}.cls-19{clip-path:url(#clip-path-20);}.cls-20{clip-path:url(#clip-path-21);}.cls-21{clip-path:url(#clip-path-23);}.cls-22{clip-path:url(#clip-path-24);}.cls-23{clip-path:url(#clip-path-25);}</style><clipPath id="clip-path"><path class="cls-1" d="M3.21,10.23H1.59V5H0V3.86a2.07,2.07,0,0,0,1.23-.37,1.41,1.41,0,0,0,.59-.91H3.21Z"/></clipPath><clipPath id="clip-path-2"><rect class="cls-1" x="-193.25" y="-13.96" width="224.83" height="172.95"/></clipPath><clipPath id="clip-path-3"><rect class="cls-1" x="-1.5" y="1.07" width="6.02" height="10.53"/></clipPath><clipPath id="clip-path-4"><rect class="cls-1" x="-1.21" y="1.32" width="5.64" height="10.16"/></clipPath><clipPath id="clip-path-5"><rect class="cls-1" y="2.58" width="3.38" height="7.9"/></clipPath><clipPath id="clip-path-6"><path class="cls-1" d="M5.52,10.23H3.94V5h1.5v.59A1.32,1.32,0,0,1,6.06,5a1.86,1.86,0,0,1,.87-.21,1.55,1.55,0,0,1,1.52.82,1.85,1.85,0,0,1,1.6-.82,2,2,0,0,1,1.36.5A2,2,0,0,1,12,6.84v3.38H10.45v-3a.93.93,0,0,0-.21-.64.77.77,0,0,0-.61-.25A.8.8,0,0,0,9,6.58a1,1,0,0,0-.23.63v3H7.2v-3A1,1,0,0,0,7,6.56a.81.81,0,0,0-.62-.25.8.8,0,0,0-.63.27.91.91,0,0,0-.22.64Z"/></clipPath><clipPath id="clip-path-8"><rect class="cls-1" x="2.63" y="3.33" width="10.9" height="8.27"/></clipPath><clipPath id="clip-path-9"><rect class="cls-1" x="2.72" y="3.6" width="10.46" height="7.87"/></clipPath><clipPath id="clip-path-10"><rect class="cls-1" x="3.76" y="4.83" width="8.27" height="5.64"/></clipPath><clipPath id="clip-path-11"><path class="cls-1" d="M12.58,10.56,14,10.17a1,1,0,0,0,.38.62,1.07,1.07,0,0,0,.75.24c.87,0,1.3-.57,1.3-1.45V9.26a1.59,1.59,0,0,1-1.4.59,2.32,2.32,0,0,1-1.74-.72,2.54,2.54,0,0,1-.69-1.81,2.49,2.49,0,0,1,.69-1.79A2.25,2.25,0,0,1,15,4.77,2,2,0,0,1,16,5a1.24,1.24,0,0,1,.51.45V4.87H18V9.5a3.15,3.15,0,0,1-.71,2.12,2.63,2.63,0,0,1-2.09.79,2.81,2.81,0,0,1-1.79-.54A2.1,2.1,0,0,1,12.58,10.56ZM14.5,8.15a1.07,1.07,0,0,0,.81.32,1,1,0,0,0,.8-.32,1.07,1.07,0,0,0,.31-.83,1.08,1.08,0,0,0-.32-.83,1.06,1.06,0,0,0-.79-.32A1.18,1.18,0,0,0,14.18,7.4,1.16,1.16,0,0,0,14.5,8.15Z"/></clipPath><clipPath id="clip-path-13"><rect class="cls-1" x="11.28" y="3.33" width="8.27" height="10.53"/></clipPath><clipPath id="clip-path-14"><rect class="cls-1" x="11.34" y="3.54" width="7.9" height="10.11"/></clipPath><clipPath id="clip-path-15"><rect class="cls-1" x="12.41" y="4.46" width="5.64" height="8.27"/></clipPath><clipPath id="clip-path-16"><rect class="cls-1" x="1.67" y="10.84" width="10.84" height="1.56"/></clipPath><clipPath id="clip-path-18"><rect class="cls-1" x="0.38" y="9.35" width="13.54" height="4.51"/></clipPath><clipPath id="clip-path-19"><rect class="cls-1" x="0.38" y="9.66" width="13.41" height="3.9"/></clipPath><clipPath id="clip-path-20"><rect class="cls-1" x="1.5" y="10.47" width="11.28" height="2.26"/></clipPath><clipPath id="clip-path-21"><rect class="cls-1" x="3.94" y="2.58" width="14.05" height="1.56"/></clipPath><clipPath id="clip-path-23"><rect class="cls-1" x="2.63" y="1.07" width="16.92" height="4.51"/></clipPath><clipPath id="clip-path-24"><rect class="cls-1" x="2.7" y="1.41" width="16.54" height="3.9"/></clipPath><clipPath id="clip-path-25"><rect class="cls-1" x="3.76" y="2.58" width="14.29" height="1.88"/></clipPath></defs><title>logo</title><g class="cls-2"><g class="cls-3"><g class="cls-4"><g class="cls-5"><g class="cls-6"><rect class="cls-7" x="-4.97" y="-2.44" width="13.16" height="17.68"/></g></g></g></g></g><g class="cls-8"><g class="cls-3"><g class="cls-9"><g class="cls-10"><g class="cls-11"><rect class="cls-7" x="-1.04" y="-0.16" width="17.98" height="15.39"/></g></g></g></g></g><g class="cls-12"><g class="cls-3"><g class="cls-13"><g class="cls-14"><g class="cls-15"><rect class="cls-7" x="7.58" y="-0.21" width="15.42" height="17.63"/></g></g></g></g></g><g class="cls-16"><g class="cls-3"><g class="cls-17"><g class="cls-18"><g class="cls-19"><rect class="cls-7" x="-3.38" y="5.9" width="20.93" height="11.42"/></g></g></g></g></g><g class="cls-20"><g class="cls-3"><g class="cls-21"><g class="cls-22"><g class="cls-23"><rect class="cls-7" x="-1.06" y="-2.35" width="24.06" height="11.42"/></g></g></g></g></g></svg>