<?xml version="1.0" encoding="utf-8"?>
<!-- Generator: Adobe Illustrator 23.1.0, SVG Export Plug-In . SVG Version: 6.00 Build 0)  -->
<svg version="1.0" id="Layer_1" xmlns="http://www.w3.org/2000/svg" xmlns:xlink="http://www.w3.org/1999/xlink" x="0px" y="0px"
	 viewBox="0 0 120 52" style="enable-background:new 0 0 120 52;" xml:space="preserve">
<style type="text/css">
	.st0{fill:#FFFFFF;}
	.st1{fill:#8CC652;}
</style>
<g>
	<polygon class="st0" points="94.92,25.73 94.05,25.73 94.05,25.56 95.99,25.56 95.99,25.73 95.11,25.73 95.11,28.07 94.92,28.07 	
		"/>
	<polygon class="st0" points="96.62,25.56 96.8,25.56 97.81,27.05 98.82,25.56 98.99,25.56 98.99,28.07 98.81,28.07 98.81,25.89 
		97.81,27.34 97.8,27.34 96.8,25.89 96.8,28.07 96.62,28.07 	"/>
	<g>
		<rect x="18.52" y="42.23" class="st0" width="1.12" height="6.37"/>
		<path class="st0" d="M21.4,43.8h1.1v0.75c0.31-0.46,0.76-0.85,1.5-0.85c1.08,0,1.71,0.73,1.71,1.85v3.06h-1.1v-2.73
			c0-0.75-0.37-1.17-1.03-1.17c-0.64,0-1.08,0.45-1.08,1.19v2.71h-1.1V43.8z"/>
		<path class="st0" d="M26.98,46.21v-0.02c0-1.59,1.08-2.49,2.23-2.49c0.79,0,1.29,0.4,1.64,0.85v-2.59h1.1v6.65h-1.1v-0.8
			c-0.36,0.5-0.86,0.9-1.64,0.9C28.08,48.7,26.98,47.8,26.98,46.21 M30.87,46.21v-0.02c0-0.93-0.66-1.54-1.39-1.54
			c-0.76,0-1.38,0.58-1.38,1.54v0.02c0,0.93,0.64,1.54,1.38,1.54C30.22,47.75,30.87,47.13,30.87,46.21"/>
		<path class="st0" d="M33.53,42.01h1.18v1.05h-1.18V42.01z M33.58,43.8h1.1v4.81h-1.1V43.8z"/>
		<path class="st0" d="M39.24,48.6v-0.59c-0.33,0.39-0.83,0.69-1.56,0.69c-0.91,0-1.71-0.52-1.71-1.48V47.2
			c0-1.07,0.83-1.58,1.95-1.58c0.58,0,0.96,0.08,1.33,0.2v-0.09c0-0.66-0.42-1.03-1.18-1.03c-0.54,0-0.94,0.12-1.37,0.3l-0.3-0.88
			c0.53-0.24,1.05-0.4,1.83-0.4c1.42,0,2.11,0.75,2.11,2.03v2.85H39.24z M39.27,46.59c-0.28-0.11-0.67-0.19-1.1-0.19
			c-0.69,0-1.1,0.28-1.1,0.75v0.02c0,0.46,0.41,0.71,0.93,0.71c0.73,0,1.27-0.41,1.27-1.01V46.59z"/>
		<polygon class="st0" points="44.87,42.23 45.99,42.23 45.99,45.44 49.02,42.23 50.4,42.23 47.75,44.97 50.51,48.6 49.16,48.6 
			46.98,45.73 45.99,46.76 45.99,48.6 44.87,48.6 		"/>
		<path class="st0" d="M51.54,42.01h1.18v1.05h-1.18V42.01z M51.59,43.8h1.1v4.81h-1.1V43.8z"/>
		<path class="st0" d="M57.35,42.23h2.51c1.48,0,2.42,0.85,2.42,2.13v0.02c0,1.43-1.15,2.18-2.55,2.18h-1.27v2.05h-1.12V42.23z
			 M59.78,45.54c0.85,0,1.38-0.47,1.38-1.14v-0.02c0-0.75-0.54-1.14-1.38-1.14h-1.3v2.29H59.78z"/>
		<path class="st0" d="M63.49,41.96h1.1v2.59c0.31-0.46,0.76-0.85,1.5-0.85c1.08,0,1.71,0.73,1.71,1.85v3.06h-1.1v-2.73
			c0-0.75-0.37-1.17-1.03-1.17c-0.64,0-1.08,0.45-1.08,1.19v2.71h-1.1V41.96z"/>
		<path class="st0" d="M72.26,48.6v-0.59c-0.33,0.39-0.83,0.69-1.56,0.69c-0.91,0-1.71-0.52-1.71-1.48V47.2
			c0-1.07,0.83-1.58,1.95-1.58c0.58,0,0.96,0.08,1.33,0.2v-0.09c0-0.66-0.42-1.03-1.18-1.03c-0.54,0-0.94,0.12-1.38,0.3l-0.3-0.88
			c0.53-0.24,1.05-0.4,1.83-0.4c1.42,0,2.11,0.75,2.11,2.03v2.85H72.26z M72.29,46.59c-0.28-0.11-0.67-0.19-1.1-0.19
			c-0.69,0-1.1,0.28-1.1,0.75v0.02c0,0.46,0.41,0.71,0.93,0.71c0.73,0,1.27-0.41,1.27-1.01V46.59z"/>
		<path class="st0" d="M74.85,43.8h1.1v1.08c0.3-0.72,0.86-1.21,1.7-1.17v1.17h-0.06c-0.97,0-1.64,0.63-1.64,1.9v1.83h-1.1V43.8z"/>
		<path class="st0" d="M78.79,43.8h1.1v0.73c0.31-0.43,0.73-0.83,1.47-0.83c0.69,0,1.17,0.34,1.43,0.85
			c0.39-0.51,0.9-0.85,1.63-0.85c1.05,0,1.68,0.66,1.68,1.84v3.07H85v-2.73c0-0.77-0.36-1.17-0.97-1.17c-0.6,0-1.03,0.42-1.03,1.19
			v2.71h-1.1v-2.74c0-0.75-0.36-1.17-0.97-1.17c-0.61,0-1.03,0.46-1.03,1.2v2.7h-1.1V43.8z"/>
		<path class="st0" d="M90.56,48.6v-0.59c-0.33,0.39-0.83,0.69-1.56,0.69c-0.91,0-1.71-0.52-1.71-1.48V47.2
			c0-1.07,0.83-1.58,1.95-1.58c0.58,0,0.96,0.08,1.33,0.2v-0.09c0-0.66-0.42-1.03-1.18-1.03c-0.54,0-0.94,0.12-1.38,0.3l-0.3-0.88
			c0.53-0.24,1.05-0.4,1.83-0.4c1.42,0,2.11,0.75,2.11,2.03v2.85H90.56z M90.59,46.59c-0.28-0.11-0.67-0.19-1.1-0.19
			c-0.69,0-1.1,0.28-1.1,0.75v0.02c0,0.46,0.41,0.71,0.93,0.71c0.73,0,1.27-0.41,1.27-1.01V46.59z"/>
		<path class="st0" d="M92.89,46.23v-0.02c0-1.37,1.06-2.51,2.5-2.51c0.91,0,1.48,0.34,1.92,0.83l-0.68,0.74
			c-0.34-0.35-0.69-0.6-1.25-0.6c-0.8,0-1.38,0.69-1.38,1.53v0.02c0,0.86,0.59,1.55,1.44,1.55c0.52,0,0.9-0.25,1.25-0.6l0.67,0.66
			c-0.47,0.53-1.03,0.9-1.97,0.9C93.94,48.71,92.89,47.59,92.89,46.23"/>
		<path class="st0" d="M98.33,49.8l0.37-0.82c0.2,0.11,0.42,0.18,0.65,0.18c0.31,0,0.5-0.14,0.68-0.56l-2-4.81h1.18l1.37,3.57
			l1.25-3.57h1.15l-1.91,4.94c-0.38,0.98-0.81,1.35-1.58,1.35C99.01,50.09,98.67,49.98,98.33,49.8"/>
	</g>
	<path class="st0" d="M68.63,29.93c-0.53-0.56-1.18-1.01-1.93-1.33c-0.75-0.32-1.59-0.5-2.51-0.51c-0.86,0.03-1.67,0.22-2.4,0.55
		c-0.73,0.33-1.38,0.78-1.92,1.34c-0.54,0.56-0.97,1.21-1.27,1.94c-0.3,0.73-0.45,1.52-0.45,2.36c0.03,0.89,0.21,1.72,0.54,2.47
		c0.32,0.75,0.77,1.4,1.32,1.94c0.55,0.54,1.2,0.97,1.94,1.27c0.74,0.3,1.56,0.45,2.42,0.45h0c0.08,0,0.17,0.01,0.25,0.01
		c0.5,0,0.99-0.09,1.46-0.26c0.52-0.19,1.04-0.41,1.54-0.63l0.16-0.07l-0.29-1.19l-0.21,0.06c-0.99,0.27-1.79,0.4-2.36,0.4
		c-0.69,0-1.26-0.12-1.71-0.36c-0.45-0.24-0.83-0.55-1.1-0.91c-0.28-0.36-0.49-0.77-0.62-1.21c-0.11-0.37-0.19-0.73-0.24-1.08h8.97
		v-0.21c0-0.09,0-0.21,0.01-0.36c0.01-0.16,0.01-0.28,0.01-0.35c0.03-0.82-0.09-1.61-0.38-2.35C69.58,31.15,69.16,30.49,68.63,29.93
		 M62.94,30.19c0.33-0.2,0.72-0.29,1.16-0.29h0.05c0.83,0,1.49,0.27,2.02,0.83c0.49,0.52,0.82,1.37,0.96,2.52h-5.86
		c0.05-0.39,0.14-0.76,0.25-1.12c0.14-0.43,0.33-0.81,0.56-1.14C62.31,30.66,62.6,30.39,62.94,30.19"/>
	<path class="st0" d="M55.47,29.71c-0.5-0.57-1.15-1.02-1.93-1.33c-0.78-0.31-1.73-0.46-2.83-0.46c-1.04,0-1.97,0.16-2.75,0.49
		c-0.71,0.29-1.33,0.71-1.84,1.24c-0.47-0.5-1.06-0.9-1.76-1.17c-0.78-0.31-1.74-0.46-2.86-0.46c-2,0-3.57,0.6-4.64,1.78
		c-1.07,1.17-1.62,2.79-1.62,4.8v5.83h3.21v-6.58c0-0.78,0.08-1.45,0.23-1.97c0.15-0.51,0.37-0.92,0.64-1.22
		c0.27-0.29,0.6-0.5,0.98-0.62c0.35-0.11,0.74-0.16,1.15-0.16c0.05,0,0.1,0,0.17,0c0.47-0.01,0.89,0.04,1.24,0.17
		c0.34,0.12,0.63,0.33,0.86,0.62c0.24,0.3,0.42,0.7,0.55,1.2c0.13,0.51,0.2,1.16,0.2,1.93v6.62h3.21v-5.56c0-0.43,0-0.7-0.01-0.84
		c-0.01-0.12-0.01-0.22-0.01-0.28c0-0.78,0.08-1.45,0.23-1.97c0.15-0.51,0.37-0.93,0.64-1.22c0.27-0.29,0.6-0.5,0.98-0.62
		c0.35-0.11,0.74-0.16,1.15-0.16c0.05,0,0.1,0,0.17,0c0.47-0.02,0.89,0.04,1.25,0.17c0.35,0.12,0.64,0.33,0.87,0.62
		c0.24,0.3,0.42,0.7,0.54,1.21c0.12,0.52,0.19,1.18,0.19,1.97v6.67h3.21v-5.92c0-1-0.11-1.91-0.33-2.71
		C56.33,30.98,55.96,30.28,55.47,29.71"/>
	<path class="st0" d="M80.67,28.5c-0.39-0.17-0.82-0.33-1.26-0.46c-0.57-0.18-1.24-0.26-1.99-0.26c-1.09,0-2.03,0.16-2.79,0.46
		c-0.77,0.31-1.41,0.75-1.92,1.31c-0.5,0.56-0.88,1.24-1.13,2.02c-0.25,0.77-0.39,1.65-0.42,2.61c0.03,0.95,0.17,1.82,0.42,2.58
		c0.25,0.77,0.63,1.43,1.14,1.98c0.5,0.55,1.15,0.97,1.92,1.26c0.76,0.29,1.7,0.44,2.79,0.44c1.13,0,2.11-0.15,2.91-0.44
		c0.81-0.29,1.48-0.72,2.01-1.26c0.52-0.55,0.91-1.21,1.16-1.98c0.25-0.76,0.39-1.62,0.42-2.58V21.84h-3.21L80.67,28.5z
		 M78.86,38.41c-0.35,0.11-0.74,0.17-1.15,0.17c-0.05,0-0.1,0-0.16,0c-0.47,0.02-0.91-0.04-1.31-0.16
		c-0.38-0.12-0.71-0.33-0.98-0.62c-0.27-0.3-0.49-0.71-0.64-1.22c-0.16-0.53-0.23-1.19-0.23-1.97v-0.85c0-0.78,0.08-1.46,0.23-2
		c0.15-0.53,0.37-0.96,0.65-1.29c0.27-0.32,0.6-0.54,0.98-0.67c0.35-0.12,0.74-0.18,1.16-0.18c0.05,0,0.09,0,0.15,0l0.13,0
		c0.42,0,0.81,0.07,1.16,0.19c0.38,0.14,0.71,0.37,0.99,0.69c0.28,0.32,0.49,0.75,0.65,1.27c0.16,0.54,0.23,1.2,0.23,1.98v0.85
		c0,0.78-0.08,1.44-0.23,1.96c-0.15,0.51-0.37,0.91-0.64,1.21C79.57,38.08,79.24,38.29,78.86,38.41"/>
	<path class="st0" d="M93.69,35.25c-0.24-0.42-0.55-0.78-0.94-1.08c-0.37-0.29-0.8-0.54-1.27-0.75c-0.45-0.2-0.91-0.39-1.36-0.57
		c-0.35-0.14-0.7-0.29-1.03-0.42c-0.32-0.13-0.6-0.28-0.84-0.45c-0.24-0.16-0.43-0.34-0.57-0.53c-0.13-0.17-0.19-0.38-0.19-0.62
		c0-0.23,0.06-0.42,0.18-0.59c0.13-0.18,0.29-0.33,0.49-0.45c0.21-0.13,0.45-0.22,0.72-0.29c0.28-0.07,0.57-0.1,0.84-0.1
		c0.52,0.05,0.97,0.11,1.35,0.2c0.37,0.08,0.7,0.19,0.98,0.31c0.28,0.12,0.52,0.26,0.73,0.39c0.21,0.14,0.42,0.29,0.61,0.43
		l0.34,0.26v-0.43c0-0.24,0-0.47,0.01-0.71c0.01-0.25-0.01-0.54-0.06-0.87l-0.01-0.1l-0.09-0.05c-0.33-0.19-0.63-0.36-0.91-0.5
		c-0.29-0.14-0.59-0.26-0.91-0.34c-0.32-0.08-0.66-0.14-1.03-0.18c-0.36-0.03-0.77-0.05-1.23-0.05c-0.6,0-1.18,0.08-1.73,0.23
		c-0.55,0.15-1.05,0.38-1.48,0.67c-0.43,0.3-0.78,0.67-1.04,1.09c-0.26,0.44-0.39,0.93-0.39,1.46c0,0.63,0.12,1.17,0.37,1.62
		c0.24,0.44,0.55,0.81,0.94,1.11c0.38,0.29,0.8,0.54,1.27,0.74c0.46,0.2,0.92,0.38,1.39,0.54c0.35,0.13,0.69,0.26,1.01,0.38
		c0.31,0.12,0.58,0.27,0.82,0.43c0.23,0.15,0.41,0.33,0.55,0.53c0.13,0.18,0.19,0.39,0.19,0.64c0,0.29-0.06,0.53-0.19,0.74
		c-0.13,0.21-0.31,0.4-0.54,0.55c-0.24,0.16-0.51,0.28-0.82,0.36c-0.31,0.08-0.64,0.13-1,0.13c-0.75,0.03-1.41-0.02-1.96-0.14
		c-0.54-0.12-1.11-0.39-1.68-0.79l-0.4-0.28l0.3,2.27l0.13,0.04c0.67,0.2,1.33,0.34,1.98,0.42c0.64,0.08,1.28,0.13,1.9,0.15h0.01
		c0.56,0,1.14-0.07,1.72-0.21c0.58-0.14,1.12-0.37,1.59-0.67c0.48-0.31,0.87-0.71,1.17-1.19c0.3-0.49,0.45-1.08,0.45-1.75
		C94.06,36.19,93.94,35.67,93.69,35.25"/>
	<path class="st0" d="M11.53,29.8c-0.5-0.57-1.15-1.02-1.93-1.33c-0.78-0.31-1.73-0.46-2.84-0.46c-2.01,0-3.57,0.6-4.65,1.78
		c-1.07,1.17-1.62,2.79-1.62,4.8v5.83h3.21v-6.58c0-0.78,0.08-1.45,0.23-1.97c0.15-0.51,0.37-0.92,0.64-1.22
		c0.27-0.29,0.6-0.5,0.98-0.62c0.35-0.11,0.74-0.16,1.15-0.16c0.05,0,0.1,0,0.17,0c0.47-0.01,0.89,0.04,1.25,0.17
		c0.35,0.12,0.64,0.33,0.87,0.62c0.24,0.3,0.42,0.7,0.54,1.21c0.12,0.52,0.19,1.19,0.19,1.97v6.58h3.21v-5.83
		c0-1-0.11-1.91-0.33-2.71C12.39,31.07,12.03,30.38,11.53,29.8"/>
	<path class="st0" d="M24.7,29.93c-0.54-0.56-1.18-1.01-1.93-1.33c-0.75-0.32-1.59-0.5-2.51-0.51c-0.86,0.03-1.67,0.22-2.4,0.55
		c-0.73,0.33-1.38,0.78-1.92,1.34c-0.54,0.56-0.97,1.21-1.27,1.94c-0.3,0.73-0.45,1.53-0.45,2.36c0.03,0.89,0.21,1.73,0.54,2.47
		c0.32,0.75,0.77,1.4,1.32,1.94c0.55,0.54,1.2,0.97,1.94,1.27c0.74,0.3,1.56,0.45,2.42,0.45h0c0.09,0,0.17,0.01,0.25,0.01
		c0.5,0,0.99-0.09,1.46-0.26c0.52-0.19,1.03-0.41,1.54-0.63l0.16-0.07l-0.29-1.19l-0.21,0.06c-0.99,0.27-1.79,0.4-2.36,0.4
		c-0.69,0-1.26-0.12-1.71-0.36c-0.45-0.24-0.83-0.55-1.1-0.91c-0.28-0.36-0.49-0.77-0.62-1.21c-0.11-0.37-0.19-0.73-0.24-1.08h8.97
		v-0.21c0-0.09,0-0.22,0.01-0.36c0.01-0.16,0.01-0.28,0.01-0.35c0.03-0.82-0.09-1.61-0.38-2.35C25.64,31.15,25.23,30.49,24.7,29.93
		 M19,30.19c0.33-0.2,0.72-0.29,1.16-0.29h0.05c0.83,0,1.49,0.27,2.02,0.83c0.49,0.52,0.82,1.37,0.96,2.52h-5.86
		c0.05-0.38,0.14-0.76,0.25-1.12c0.14-0.43,0.33-0.81,0.56-1.14C18.38,30.66,18.67,30.39,19,30.19"/>
	<path class="st0" d="M31.53,38.27v-8.54h2.81v-1.86h-2.81v-6l-3.11,1.94v4.06h-2.83v1.86h2.83v7.46h-0.01v1.75
		c0,0.23,0.06,0.44,0.16,0.63c0.11,0.19,0.27,0.35,0.5,0.49c0.22,0.14,0.51,0.24,0.85,0.32c0.34,0.07,0.75,0.11,1.21,0.11
		c0.64,0,1.52-0.05,2.02-0.14l0-0.71c-0.04,0-0.11,0.01-0.16,0.01c-0.21,0-0.72-0.03-0.9-0.06c-0.48-0.07-0.57-0.54-0.57-0.83
		L31.53,38.27L31.53,38.27z"/>
	<rect x="95.06" y="39.18" class="st0" width="1.08" height="1.24"/>
	<path class="st0" d="M100.09,40.56c-0.45,0-0.86-0.08-1.24-0.25c-0.38-0.17-0.71-0.4-0.99-0.68c-0.28-0.29-0.5-0.62-0.65-1.01
		c-0.16-0.38-0.24-0.79-0.24-1.21v-0.02c0-0.43,0.08-0.84,0.24-1.23c0.16-0.38,0.38-0.72,0.65-1.01c0.28-0.29,0.61-0.52,0.99-0.69
		c0.38-0.17,0.8-0.25,1.24-0.25c0.29,0,0.55,0.03,0.79,0.08c0.24,0.06,0.45,0.13,0.65,0.23c0.2,0.1,0.38,0.21,0.54,0.35
		c0.16,0.13,0.32,0.28,0.46,0.42l-0.6,0.64c-0.24-0.25-0.51-0.47-0.8-0.65c-0.29-0.18-0.64-0.27-1.05-0.27
		c-0.31,0-0.59,0.06-0.86,0.18c-0.27,0.12-0.5,0.29-0.7,0.5c-0.2,0.21-0.35,0.46-0.46,0.75c-0.11,0.29-0.16,0.59-0.16,0.92v0.02
		c0,0.33,0.06,0.64,0.17,0.92c0.11,0.29,0.27,0.54,0.47,0.75c0.2,0.22,0.44,0.38,0.71,0.51c0.27,0.12,0.57,0.18,0.89,0.18
		c0.39,0,0.74-0.09,1.04-0.26c0.3-0.17,0.58-0.39,0.82-0.65l0.58,0.54c-0.31,0.35-0.65,0.63-1.04,0.85
		C101.14,40.45,100.66,40.56,100.09,40.56"/>
	<path class="st0" d="M106.14,40.56c-0.46,0-0.88-0.08-1.26-0.25c-0.39-0.17-0.72-0.4-1-0.68c-0.28-0.29-0.5-0.62-0.66-1
		c-0.16-0.38-0.23-0.79-0.23-1.22v-0.02c0-0.43,0.08-0.84,0.23-1.23c0.16-0.39,0.38-0.72,0.66-1.01c0.28-0.29,0.62-0.52,1.01-0.69
		c0.39-0.17,0.82-0.25,1.28-0.25c0.46,0,0.88,0.08,1.27,0.25c0.39,0.17,0.72,0.4,1.01,0.68c0.28,0.29,0.5,0.62,0.66,1
		c0.16,0.38,0.24,0.79,0.24,1.22v0.02c0,0.43-0.08,0.84-0.24,1.23c-0.16,0.38-0.38,0.72-0.67,1.01c-0.28,0.29-0.62,0.52-1.01,0.69
		C107.02,40.47,106.6,40.56,106.14,40.56 M106.16,39.74c0.33,0,0.63-0.06,0.91-0.19c0.28-0.13,0.51-0.29,0.71-0.51
		c0.2-0.21,0.35-0.46,0.46-0.74c0.11-0.28,0.16-0.58,0.16-0.91v-0.02c0-0.33-0.06-0.64-0.17-0.92c-0.11-0.29-0.27-0.54-0.48-0.75
		c-0.2-0.22-0.44-0.39-0.72-0.51c-0.27-0.13-0.57-0.19-0.9-0.19c-0.33,0-0.63,0.06-0.91,0.19c-0.27,0.13-0.51,0.29-0.7,0.51
		c-0.19,0.21-0.34,0.46-0.45,0.75c-0.11,0.29-0.16,0.59-0.16,0.91v0.02c0,0.33,0.06,0.64,0.17,0.92c0.11,0.29,0.27,0.54,0.47,0.75
		c0.2,0.21,0.44,0.38,0.71,0.51C105.54,39.68,105.84,39.74,106.16,39.74"/>
	<path class="st0" d="M110.26,34.32h0.91v1.02c0.1-0.15,0.21-0.29,0.34-0.44c0.12-0.14,0.26-0.27,0.42-0.37
		c0.16-0.11,0.33-0.19,0.53-0.25c0.2-0.06,0.42-0.09,0.68-0.09c0.49,0,0.9,0.11,1.23,0.35c0.32,0.23,0.57,0.52,0.73,0.87
		c0.11-0.17,0.23-0.32,0.37-0.47c0.14-0.15,0.29-0.28,0.47-0.39c0.17-0.11,0.37-0.2,0.58-0.26c0.22-0.06,0.46-0.09,0.72-0.09
		c0.71,0,1.26,0.22,1.66,0.65c0.4,0.44,0.6,1.03,0.6,1.8v3.77h-0.91v-3.55c0-0.59-0.14-1.04-0.42-1.36
		c-0.28-0.32-0.67-0.48-1.16-0.48c-0.23,0-0.44,0.04-0.65,0.12c-0.2,0.08-0.38,0.2-0.54,0.36c-0.15,0.16-0.28,0.36-0.37,0.59
		c-0.09,0.23-0.14,0.5-0.14,0.8v3.5h-0.9v-3.57c0-0.57-0.14-1.02-0.42-1.33c-0.28-0.32-0.66-0.48-1.15-0.48
		c-0.24,0-0.47,0.05-0.67,0.14c-0.2,0.09-0.38,0.23-0.54,0.4c-0.15,0.17-0.27,0.37-0.36,0.6c-0.09,0.23-0.13,0.49-0.13,0.77v3.47
		h-0.91V34.32z"/>
</g>
<g>
	<path class="st1" d="M66.5,22.54c2.82-0.73,5.24-2.82,6.25-5.79c0-0.01,0.01-0.02,0.01-0.03H66.5V22.54z"/>
	<path class="st1" d="M72.41,10.11c-0.99-2.16-2.83-3.93-5.26-4.76L66.5,5.12v4.99H72.41z"/>
	<path class="st1" d="M53.15,16.71v-6.61h6.69V2.84l-1.18-0.4C54.03,0.86,49,3.27,47.32,7.84l-0.14,0.4
		c-1.47,4.64,1.03,9.62,5.66,11.2l2.32,0.76c0,0.01-0.01,0.02-0.01,0.02l4.69,1.6v-5.11H53.15z"/>
	<path class="st0" d="M72.41,10.11H66.5V5.12l-5.24-1.79l0-0.01l-1.41-0.48v7.26h-6.69v6.61h6.69v5.11l1.5,0.51
		c1.73,0.59,3.51,0.62,5.15,0.2v-5.82h6.26C73.52,14.46,73.33,12.11,72.41,10.11z"/>
</g>
</svg>
