<svg xmlns="http://www.w3.org/2000/svg" xmlns:xlink="http://www.w3.org/1999/xlink" version="1.1" x="0px" y="0px" viewBox="0 0 100 100" style="enable-background:new 0 0 100 100;" xml:space="preserve"><path d="M81.9,95H63.6c-1.9,0-3.7-0.7-5-2l1.8-1.9c0.9,0.8,2,1.3,3.2,1.3h18.3c2.5,0,4.6-2.1,4.6-4.6V33c0-2.5-2.1-4.6-4.6-4.6H63.6  c-2,0-3.7,1.3-4.3,3.1l-2.5-0.8c1-2.9,3.7-4.9,6.8-4.9h18.3c4,0,7.2,3.2,7.2,7.2v54.9C89.1,91.8,85.8,95,81.9,95z M47.6,28.1v-2.9  H45v4.7l0.9,0.3c0.1,0,9.1,3.2,9.1,11.4v43.1c0,4.2-3.4,7.7-7.7,7.7H21.2c-4.2,0-7.7-3.4-7.7-7.7v-6.1h38.9V76H13.5V50.1h38.9v-2.6  H13.5v-5.9c0-8.2,8.7-11.3,9.1-11.4l0.9-0.3v-4.7h-2.6v2.9c-2.6,1.1-10,5-10,13.5v43.1c0,5.7,4.6,10.3,10.3,10.3h26.2  c5.7,0,10.3-4.6,10.2-10.3V41.6C57.6,33.1,50.2,29.2,47.6,28.1z M50.5,23.3H18.2V9.5c0-2.5,2-4.5,4.5-4.5H46c2.5,0,4.5,2,4.5,4.5  V23.3z M20.8,20.7h27.1V9.5c0-1-0.8-1.9-1.9-1.9H22.6c-1,0-1.9,0.8-1.9,1.9L20.8,20.7L20.8,20.7z M66.4,42.3c-2.8,0-5-2.2-5-5  s2.2-5,5-5c2.8,0,5,2.2,5,5S69.2,42.3,66.4,42.3z M66.4,34.8c-1.3,0-2.4,1.1-2.4,2.4s1.1,2.4,2.4,2.4s2.4-1.1,2.4-2.4  S67.8,34.8,66.4,34.8z M79.1,42.3c-2.8,0-5-2.2-5-5s2.2-5,5-5s5,2.2,5,5S81.8,42.3,79.1,42.3z M79.1,34.8c-1.3,0-2.4,1.1-2.4,2.4  s1.1,2.4,2.4,2.4s2.4-1.1,2.4-2.4S80.4,34.8,79.1,34.8z M66.4,53.8c-2.8,0-5-2.2-5-5s2.2-5,5-5c2.8,0,5,2.2,5,5S69.2,53.8,66.4,53.8  z M66.4,46.4c-1.3,0-2.4,1.1-2.4,2.4s1.1,2.4,2.4,2.4s2.4-1.1,2.4-2.4S67.8,46.4,66.4,46.4z M79.1,53.8c-2.8,0-5-2.2-5-5s2.2-5,5-5  s5,2.2,5,5S81.8,53.8,79.1,53.8z M79.1,46.4c-1.3,0-2.4,1.1-2.4,2.4s1.1,2.4,2.4,2.4s2.4-1.1,2.4-2.4S80.4,46.4,79.1,46.4z   M66.4,65.4c-2.8,0-5-2.2-5-5s2.2-5,5-5c2.8,0,5,2.2,5,5S69.2,65.4,66.4,65.4z M66.4,58c-1.3,0-2.4,1.1-2.4,2.4s1.1,2.4,2.4,2.4  s2.4-1.1,2.4-2.4S67.8,58,66.4,58z M79.1,65.4c-2.8,0-5-2.2-5-5s2.2-5,5-5s5,2.2,5,5S81.8,65.4,79.1,65.4z M79.1,58  c-1.3,0-2.4,1.1-2.4,2.4s1.1,2.4,2.4,2.4s2.4-1.1,2.4-2.4S80.4,58,79.1,58z M66.4,77c-2.8,0-5-2.2-5-5s2.2-5,5-5c2.8,0,5,2.2,5,5  C71.4,74.7,69.2,77,66.4,77z M66.4,69.5c-1.3,0-2.4,1.1-2.4,2.4s1.1,2.4,2.4,2.4s2.4-1.1,2.4-2.4C68.9,70.6,67.8,69.5,66.4,69.5z   M79.1,77c-2.8,0-5-2.2-5-5s2.2-5,5-5s5,2.2,5,5C84.1,74.7,81.8,77,79.1,77z M79.1,69.5c-1.3,0-2.4,1.1-2.4,2.4s1.1,2.4,2.4,2.4  s2.4-1.1,2.4-2.4S80.4,69.5,79.1,69.5z M66.4,88.5c-2.8,0-5-2.2-5-5s2.2-5,5-5c2.8,0,5,2.2,5,5S69.2,88.5,66.4,88.5z M66.4,81.1  c-1.3,0-2.4,1.1-2.4,2.4s1.1,2.4,2.4,2.4s2.4-1.1,2.4-2.4C68.9,82.2,67.8,81.1,66.4,81.1z M79.1,88.5c-2.8,0-5-2.2-5-5s2.2-5,5-5  s5,2.2,5,5S81.8,88.5,79.1,88.5z M79.1,81.1c-1.3,0-2.4,1.1-2.4,2.4s1.1,2.4,2.4,2.4s2.4-1.1,2.4-2.4S80.4,81.1,79.1,81.1z"></path></svg>