<svg xmlns="http://www.w3.org/2000/svg" xmlns:xlink="http://www.w3.org/1999/xlink" version="1.1" x="0px" y="0px" viewBox="0 0 100 100" enable-background="new 0 0 100 100" xml:space="preserve"><g><polygon points="42.365,21.032 42.359,21.034 42.359,21.034  "></polygon><polygon points="55.404,21.034 55.404,21.034 55.398,21.032  "></polygon><path d="M38.979,62.991h3.312c0.574,0.001,1.039,0.466,1.041,1.041v3.312c0.001,2.179,1.765,3.943,3.944,3.944h3.207   c2.179-0.001,3.943-1.765,3.944-3.944v-3.312c0.001-0.574,0.466-1.04,1.041-1.041h3.312c2.179-0.001,3.943-1.765,3.944-3.944   v-3.192c-0.001-2.179-1.765-3.943-3.944-3.944h-3.312c-0.574-0.001-1.04-0.466-1.041-1.041v-3.327   c-0.001-2.179-1.765-3.943-3.944-3.944h-3.207c-2.179,0.001-3.943,1.765-3.944,3.944v3.327c-0.001,0.574-0.466,1.039-1.041,1.041   h-3.312c-2.179,0.001-3.943,1.765-3.944,3.944v3.192C35.036,61.226,36.8,62.99,38.979,62.991z M37.938,55.855   c0.001-0.574,0.466-1.04,1.041-1.041h3.312c2.179-0.001,3.943-1.765,3.944-3.944v-3.327c0.001-0.574,0.467-1.04,1.041-1.041h3.207   c0.574,0.001,1.04,0.467,1.041,1.041v3.327c0.001,2.179,1.765,3.943,3.944,3.944h3.312c0.574,0.001,1.04,0.466,1.041,1.041v3.192   c-0.001,0.574-0.466,1.04-1.041,1.041h-3.312c-2.179,0.001-3.943,1.765-3.944,3.944v3.312c-0.001,0.574-0.467,1.04-1.041,1.041   h-3.207c-0.574-0.001-1.04-0.467-1.041-1.041v-3.312c-0.001-2.179-1.765-3.943-3.944-3.944h-3.312   c-0.574-0.001-1.04-0.466-1.041-1.041V55.855z"></path><path d="M88.944,54.286v-6.49c-0.001-1.905-1.109-3.536-2.708-4.327v-3.626h1.256c0.802,0,1.452-0.65,1.452-1.452   c0-0.802-0.65-1.452-1.452-1.452h-1.352l-1.203-16.782l-0.001-0.009c-0.175-2.225-2.029-3.94-4.261-3.941   c-2.232,0.001-4.087,1.716-4.261,3.941l-0.001,0.009l-0.712,9.939c-1.869-3.359-4.858-6.067-8.593-7.545l-10.64-4.219l-0.006-0.002   c-0.617-0.242-1.071-0.742-1.281-1.347c1.679-0.463,2.917-1.984,2.918-3.811V8.97C58.099,6.777,56.323,5.001,54.13,5H43.638   c-2.193,0.001-3.969,1.777-3.97,3.97v4.203c0.001,1.825,1.237,3.345,2.914,3.809c-0.209,0.606-0.663,1.107-1.281,1.349   l-0.006,0.002l-10.641,4.22c-6.482,2.564-10.738,8.824-10.739,15.791V49.18h-5.201c-1.973,0.001-3.571,1.599-3.572,3.572v3.445   c0.001,1.617,1.08,2.965,2.553,3.406v1.875L8.32,64.121l0.002,0.004C6.309,65.008,5.002,66.997,5,69.203v20.238   C5.003,92.51,7.49,94.997,10.559,95h19.05l0.021-0.001L87.368,95c4.215-0.001,7.631-3.416,7.632-7.632V61.753   C94.999,58.078,92.403,55.012,88.944,54.286z M83.333,42.952h-5.485l0-3.105h5.485V42.952z M75.311,47.796   c0.002-0.896,0.612-1.643,1.438-1.866h7.854c0.826,0.224,1.436,0.97,1.438,1.866v6.325h-10.73L75.311,47.796z M79.309,20.374   c0.055-0.713,0.651-1.265,1.367-1.264c0.715-0.001,1.311,0.551,1.367,1.264L83.23,36.94h-5.108L79.309,20.374z M42.572,8.97   c0.001-0.588,0.478-1.065,1.066-1.066H54.13c0.588,0.001,1.065,0.478,1.066,1.066v4.203c-0.001,0.588-0.478,1.065-1.066,1.066   H43.638c-0.588-0.001-1.065-0.478-1.066-1.066V8.97z M22.818,38.343c0-5.775,3.528-10.965,8.904-13.091l10.637-4.218   c1.689-0.661,2.868-2.154,3.173-3.892h6.699c0.305,1.738,1.484,3.231,3.173,3.892l10.635,4.217   c4.937,1.953,8.307,6.489,8.827,11.688H73.86c-0.802,0-1.452,0.65-1.452,1.452c0,0.802,0.65,1.452,1.452,1.452h1.085v3.719   c-1.504,0.822-2.536,2.399-2.537,4.235v6.49c-3.459,0.727-6.055,3.792-6.056,7.467v25.616c0,1.787,0.619,3.427,1.648,4.728H34.483   c0.429-0.789,0.674-1.694,0.674-2.654V69.203c0-2.197-1.297-4.195-3.321-5.078l0.002-0.004l-5.366-2.643v-1.877   c1.47-0.443,2.547-1.79,2.548-3.405v-3.445c-0.001-1.973-1.599-3.571-3.572-3.572h-2.63V38.343z M14.046,52.752   c0.001-0.369,0.3-0.668,0.669-0.669h6.629l0.023,0.002l0.023-0.002h4.058c0.369,0.001,0.668,0.3,0.669,0.669v3.445   c-0.001,0.369-0.3,0.668-0.669,0.669h-0.413l-0.014-0.001h-9.873l-0.014,0.001h-0.418c-0.369-0.001-0.668-0.3-0.669-0.669V52.752z    M8.683,91.317c-0.484-0.487-0.779-1.142-0.78-1.876V69.203c-0.002-1.062,0.646-2.035,1.619-2.44l0.08-0.036l6.186-3.042   l0.075-0.047l0.134-0.084l0.106-0.088l0.102-0.097l0.09-0.109l0.08-0.113l0.065-0.12l0.059-0.131l0.041-0.133l0.032-0.136   l0.016-0.156l0.009-0.089l0-2.613h6.97v2.613l0.009,0.088l0.016,0.157l0.032,0.135l0.041,0.134l0.059,0.13l0.066,0.121l0.08,0.113   l0.091,0.11l0.102,0.096l0.107,0.088l0.134,0.084l0.075,0.047h0l6.176,3.042l0.084,0.038c0.978,0.406,1.615,1.369,1.615,2.439   v20.238c-0.001,0.736-0.295,1.392-0.776,1.878c-0.482,0.481-1.13,0.773-1.859,0.777h-0.007h-2.284l-0.01,0.001H10.559   C9.825,92.096,9.169,91.802,8.683,91.317z M92.097,87.368c-0.001,1.31-0.527,2.483-1.385,3.344   c-0.86,0.858-2.033,1.384-3.344,1.385H73.99l-0.01-0.001h-0.005c-1.306-0.003-2.476-0.528-3.334-1.384   c-0.858-0.86-1.384-2.033-1.385-3.344V61.753c0.001-1.31,0.527-2.483,1.385-3.344c0.86-0.858,2.033-1.384,3.344-1.385h13.384   c1.31,0.001,2.483,0.527,3.344,1.385c0.858,0.86,1.384,2.033,1.385,3.344V87.368z"></path></g></svg>