<svg xmlns="http://www.w3.org/2000/svg" xmlns:xlink="http://www.w3.org/1999/xlink" version="1.1" x="0px" y="0px" viewBox="0 0 1000 1000" style="enable-background:new 0 0 1000 1000;" xml:space="preserve"><style type="text/css">
	.st0{fill:#FFFFFF;}
</style><g><g><path d="M833.1,639.3c0,128.2-104,232.2-232.2,232.2c-81.3,0-152.9-41.8-194.4-105.1c2.3-2.6,4.4-5.3,6.4-8l0,0    l0,0l121.2-168.1l189.3,189.3c2.4,2.4,5.6,3.7,8.8,3.7s6.4-1.2,8.8-3.7c4.9-4.9,4.9-12.8,0-17.7L549,569.7l111.6-154.8    C759.9,441.2,833.1,531.7,833.1,639.3z"></path></g><g><g><g><path d="M650.2,176l0.4,0.2l0.2-0.6L650.2,176z M403.8,356.3l0.5,0.4c0.4-0.6,0.9-1.1,1.3-1.7L403.8,356.3z"></path><path class="st0" d="M650.2,176l0.4,0.2l0.2-0.6L650.2,176z M403.8,356.3l0.5,0.4c0.4-0.6,0.9-1.1,1.3-1.7      L403.8,356.3z M650.2,176l0.4,0.2l0.2-0.6L650.2,176z M403.8,356.3l0.5,0.4c0.4-0.6,0.9-1.1,1.3-1.7L403.8,356.3z M650.2,176      l0.4,0.2l0.2-0.6L650.2,176z M403.8,356.3l0.5,0.4c0.4-0.6,0.9-1.1,1.3-1.7L403.8,356.3z M650.2,176l0.4,0.2l0.2-0.6L650.2,176z       M403.8,356.3l0.5,0.4c0.4-0.6,0.9-1.1,1.3-1.7L403.8,356.3z M650.2,176l0.4,0.2l0.2-0.6L650.2,176z M403.8,356.3l0.5,0.4      c0.4-0.6,0.9-1.1,1.3-1.7L403.8,356.3z M650.2,176l0.4,0.2l0.2-0.6L650.2,176z M403.8,356.3l0.5,0.4c0.4-0.6,0.9-1.1,1.3-1.7      L403.8,356.3z M650.2,176l0.4,0.2l0.2-0.6L650.2,176z M403.8,356.3l0.5,0.4c0.4-0.6,0.9-1.1,1.3-1.7L403.8,356.3z M650.2,176      l0.4,0.2l0.2-0.6L650.2,176z M403.8,356.3l0.5,0.4c0.4-0.6,0.9-1.1,1.3-1.7L403.8,356.3z M650.2,176l0.4,0.2l0.2-0.6L650.2,176z       M403.8,356.3l0.5,0.4c0.4-0.6,0.9-1.1,1.3-1.7L403.8,356.3z M650.2,176l0.4,0.2l0.2-0.6L650.2,176z M403.8,356.3l0.5,0.4      c0.4-0.6,0.9-1.1,1.3-1.7L403.8,356.3z M650.2,176l0.4,0.2l0.2-0.6L650.2,176z M403.8,356.3l0.5,0.4c0.4-0.6,0.9-1.1,1.3-1.7      L403.8,356.3z M650.2,176l0.4,0.2l0.2-0.6L650.2,176z M650.2,176l0.4,0.2l0.2-0.6L650.2,176z M650.2,176l0.4,0.2l0.2-0.6      L650.2,176z M650.2,176l0.4,0.2l0.2-0.6L650.2,176z M650.2,176l0.4,0.2l0.2-0.6L650.2,176z M650.2,176l0.4,0.2l0.2-0.6      L650.2,176z M650.2,176l0.4,0.2l0.2-0.6L650.2,176z M403.8,356.3l0.5,0.4c0.4-0.6,0.9-1.1,1.3-1.7L403.8,356.3z M650.2,176      l0.4,0.2l0.2-0.6L650.2,176z M403.8,356.3l0.5,0.4c0.4-0.6,0.9-1.1,1.3-1.7L403.8,356.3z M650.2,176l0.4,0.2l0.2-0.6L650.2,176z       M403.8,356.3l0.5,0.4c0.4-0.6,0.9-1.1,1.3-1.7L403.8,356.3z M650.2,176l0.4,0.2l0.2-0.6L650.2,176z M403.8,356.3l0.5,0.4      c0.4-0.6,0.9-1.1,1.3-1.7L403.8,356.3z M650.2,176l0.4,0.2l0.2-0.6L650.2,176z M403.8,356.3l0.5,0.4c0.4-0.6,0.9-1.1,1.3-1.7      L403.8,356.3z M650.2,176l0.4,0.2l0.2-0.6L650.2,176z M403.8,356.3l0.5,0.4c0.4-0.6,0.9-1.1,1.3-1.7L403.8,356.3z M650.2,176      l0.4,0.2l0.2-0.6L650.2,176z M403.8,356.3l0.5,0.4c0.4-0.6,0.9-1.1,1.3-1.7L403.8,356.3z M650.2,176l0.4,0.2l0.2-0.6L650.2,176z       M403.8,356.3l0.5,0.4c0.4-0.6,0.9-1.1,1.3-1.7L403.8,356.3z"></path></g></g><g><g><path class="st0" d="M405.5,355c-0.4,0.6-0.9,1.1-1.3,1.7l-0.5-0.4L405.5,355z"></path></g><g><polygon class="st0" points="650.8,175.5 650.6,176.1 650.2,176     "></polygon><path d="M721.8,238c-6.9-30.5-24.6-58-50.2-78.3c-1.7-1.4-3.5-2.7-5.2-4c-2.5-1.8-5-3.5-7.5-5      c-23.1-14.6-49.6-22.2-75.4-22.2c-15.1,0-30,2.6-43.9,7.9c-19.8,7.6-36.6,20.3-48.7,37L337.7,386l-0.6,0.9l-1.9,2.5l-0.9,1.3      l-0.3,0.4l-0.8,1l-0.1,0l-0.8,1l-2.6,3.7l-7.9,11L186.8,595.2c-10.9,15-17.4,32.8-19.3,51.6c-0.2,1.7-0.3,3.3-0.5,5      c-0.1,2-0.2,3.7-0.2,5.4c0,3.2,0.1,6.2,0.3,9.2c0.1,0.7,0.1,1.4,0.2,1.9c0.1,1.4,0.2,2.6,0.3,3.7c0.5,4.3,1.3,8.7,2.2,13.1      c7.3,32.5,27,61.7,55.5,82.2c24.8,17.9,54.2,27.3,82.9,27.3c15.1,0,30-2.6,43.9-7.9c18.5-7.1,34.3-18.7,46.2-33.8      c0.9-1.1,1.7-2.2,2.5-3.3l122.6-170.1l14.8-20.5l106.5-147.7l60.1-83.4C723.1,302.5,729.1,270.6,721.8,238z M523.4,544.1      l-14.8,20.5L388,732.2l-3.9,5.4c-9.7,13.3-23.3,23.7-39.3,29.8c-11.6,4.4-24,6.6-36.7,6.6c-24.3,0-49.4-8-70.7-23.4      c-24.4-17.5-41.2-42.4-47.5-70c-0.5-2.3-0.9-4.6-1.4-7c-0.3-1.8-0.5-3.3-0.7-4.9c-0.2-2.6-0.4-5.3-0.5-8c-0.1-1.7,0-3.2,0-4.6      c0.4-17.9,5.9-34.8,16-48.8l131.2-182l3.9-5.5l5.7-8l90.5,65.3l20,14.5l58.1,41.9l12,8.6L523.4,544.1z M650.6,176.1l-0.4-0.2      l-6.3-3.1l-1.2-0.5l-5.7-2.5c-0.8-0.3-1.5-0.6-2.3-0.9c-1.6-0.6-3.2-1.3-4.8-1.9l-3.6-1.2c-1.2-0.4-2.3-0.8-3.7-1.2      c-2.4-0.7-4.8-1.5-7.3-2c-2.5-0.7-4.9-1.1-7.4-1.5c-1.2-0.3-2.5-0.4-3.8-0.6c-1.3-0.2-2.5-0.4-3.7-0.5l-3.8-0.4      c-1.2-0.1-2.5-0.1-3.7-0.2c-1,0-1.9-0.1-2.8-0.1c-0.3,0-0.6,0-1,0c-0.4,0-0.8,0-1.2,0h-1.4c-0.4,0-0.8,0-1.2,0      c-1.3,0.1-2.5,0.1-3.8,0.2l-3.7,0.3c-2.5,0.3-5,0.7-7.4,1.2c-2.5,0.5-4.9,1.1-7.3,1.8c-2.4,0.7-4.7,1.6-7.1,2.5      c-2.3,1-4.6,2-6.8,3.1c-2.2,1.2-4.3,2.4-6.4,3.9c-2,1.4-4,2.9-5.8,4.6L504.1,222l-33.2,45l-33.2,44.9c-0.2,0.2-0.3,0.4-0.5,0.6      c-5.2,7.1-10.5,14.1-15.7,21.2l0,0c-5.3,7.1-10.6,14.2-15.9,21.3c-0.4,0.6-0.9,1.1-1.3,1.7l-0.5-0.4l-0.5-0.4      c1-2.1,2.2-4.1,3.3-6.3c1.1-2,2.2-4.1,3.3-6.2c0.4-0.7,0.7-1.3,1.1-1.9v0c1.9-3.5,3.8-7,5.8-10.3l3.6-6.1l3.6-6.1      c2.4-4,4.9-8,7.3-12c2.5-3.9,4.9-8,7.4-11.9l7.6-11.7l7.6-11.7l7.8-11.5c2.6-3.9,5.3-7.7,7.9-11.5l4-5.8l4-5.7l8.1-11.3      l8.2-11.3c2.7-3.8,5.5-7.5,8.3-11.2c2.8-3.7,5.5-7.5,8.3-11.2l8.5-11.1c2.8-3.8,5.8-7.4,8.6-11l0.6-0.9l0.4-0.4      c0.3-0.3,0.5-0.4,0.6-0.6l0.5-0.4c0.3-0.2,0.6-0.6,1-0.8c0.6-0.6,1.2-1,1.9-1.5c1.3-0.9,2.4-1.8,3.8-2.5      c2.5-1.6,5.1-2.9,7.7-4.2c2.6-1.3,5.2-2.3,7.9-3.4c2.7-0.9,5.4-1.8,8.2-2.4c2.8-0.6,5.5-1.3,8.3-1.7c2.7-0.4,5.5-0.7,8.3-0.9      l4.2-0.2c1.4,0,2.8,0,4.2,0c1.4,0,2.7,0.1,4.1,0.3c1.4,0.1,2.8,0.2,4.1,0.4c1.4,0.2,2.7,0.4,4,0.5l4,0.7c1.4,0.2,2.7,0.6,4,0.8      c1.3,0.3,2.7,0.6,3.9,1c2.6,0.7,5.2,1.5,7.7,2.4c2.5,0.9,5,1.8,7.4,2.8c1.3,0.5,2.4,1,3.6,1.6c1.2,0.5,2.4,1.1,3.6,1.7      c2.3,1.2,4.5,2.5,6.7,3.6c0.1,0,0.1,0,0.1,0.1c2.2,1.3,4.5,2.7,6.6,4.1c0,0,0.1,0,0.1,0.1c2.1,1.4,4.2,2.9,6.2,4.4L650.6,176.1z      "></path></g></g></g></g></svg>